<svg id="emUtS9LvRDo1" xmlns="http://www.w3.org/2000/svg" xmlns:xlink="http://www.w3.org/1999/xlink" viewBox="24.88 178.2 72.72 41.03" shape-rendering="geometricPrecision" text-rendering="geometricPrecision"><path d="M62.66206,188.67946c5.3089,0,9.65498,4.12234,10.01186,9.34066h-20.02371c.35688-5.21832,4.70296-9.34066,10.01186-9.34066h-.00001Z" transform="translate(-2.744105 0.84467)" fill="none" stroke="#005aa0"/><g transform="translate(-2.711765 2.163348)"><text dx="0" dy="0" font-family="&quot;Silom&quot;" font-size="12.7" font-weight="400" transform="matrix(.987633 0 0 1.017993 41.088597 206.661425)" fill="#005aa0" stroke-width="0.176389" stroke-linejoin="round"><tspan x="0" y="0" font-family="&quot;Silom&quot;" font-size="12.7" font-weight="400" font-style="normal" fill="#005aa0" stroke-width="0.176389" stroke-linejoin="round"><![CDATA[
ARTIST
]]></tspan></text><path d="M58.051492,207.45314c0,0,.881492,4.18905,2.305285,5.63531.586291.59554,1.469583.98547,2.305286.98547s1.718995-.38993,2.305286-.98547c1.423792-1.44626,2.305285-5.63531,2.305285-5.63531h-9.221142Zm1.159619.86299h6.902421l-.529167,1.07849h-5.844087l-.529167-1.07849Zm.529167,1.56683h5.844087l-.448034,1.07849h-4.948019l-.448034-1.07849Zm.448034,1.56735h4.948019l-.379305,1.07849h-4.189409l-.379305-1.07849Z" fill="#005aa0" stroke-width="0.186188" stroke-linejoin="round"/><path d="M64.040988,-190.20429c-2.399379.330842-4.747099-.885066-5.861328-3.03564" transform="matrix(1 0 0-1-1.443156 0.186086)" fill="none" stroke="#005aa0" stroke-width="1.2" stroke-linejoin="round"/><path d="M41.491199,191.75622h9.699263" transform="translate(-.466852 4.795432)" fill="none" stroke="#005aa0" stroke-width="1.2" stroke-linejoin="round"/><path d="M41.491199,191.75622h9.699263" transform="translate(33.003352 4.795432)" fill="none" stroke="#005aa0" stroke-width="1.2" stroke-linejoin="round"/><path d="M63.481327,184.64745l.000006-2.77122" transform="matrix(.382683 0.92388-1.068796 0.44271 247.210844 51.370746)" fill="none" stroke="#005aa0" stroke-width="1.2" stroke-linejoin="round"/><path d="M63.481327,184.64745l.000006-2.77122" transform="matrix(.382683-.92388 1.016562 0.421074-160.2686 172.922441)" fill="none" stroke="#005aa0" stroke-width="1.2" stroke-linejoin="round"/><path d="M63.481327,184.64745l.000006-2.77122" transform="matrix(.707107-.707107 0.778043 0.778043-134.256507 89.409236)" fill="none" stroke="#005aa0" stroke-width="1.2" stroke-linejoin="round"/><path d="M63.481327,184.64745l.000006-2.77122" transform="matrix(.92388-.382683 0.421074 1.016562-78.265345 22.207487)" fill="none" stroke="#005aa0" stroke-width="1.2" stroke-linejoin="round"/><path d="M63.481327,184.64745l.000006-2.77122" transform="matrix(1 0 0 1.100319-.819264-18.451933)" fill="none" stroke="#005aa0" stroke-width="1.2" stroke-linejoin="round"/><path d="M63.481327,184.64745l.000006-2.77122" transform="matrix(.92388 0.382683-.421074 1.016562 86.291274-26.379017)" fill="none" stroke="#005aa0" stroke-width="1.2" stroke-linejoin="round"/><path d="M63.481327,184.64745l.000006-2.77122" transform="matrix(.707107 0.707107-.778043 0.778043 169.804479-.366918)" fill="none" stroke="#005aa0" stroke-width="1.2" stroke-linejoin="round"/></g></svg>
