<?xml version="1.0" encoding="UTF-8" standalone="no"?>
<!-- Created with Inkscape (http://www.inkscape.org/) -->

<svg
   width="84.410393mm"
   height="77.876335mm"
   viewBox="0 0 84.410393 77.876335"
   version="1.1"
   id="svg1"
   inkscape:version="1.3.2 (091e20e, 2023-11-25)"
   sodipodi:docname="ARTIST.svg"
   xmlns:inkscape="http://www.inkscape.org/namespaces/inkscape"
   xmlns:sodipodi="http://sodipodi.sourceforge.net/DTD/sodipodi-0.dtd"
   xmlns="http://www.w3.org/2000/svg"
   xmlns:svg="http://www.w3.org/2000/svg">
  <sodipodi:namedview
     id="namedview1"
     pagecolor="#ffffff"
     bordercolor="#000000"
     borderopacity="0.25"
     inkscape:showpageshadow="2"
     inkscape:pageopacity="0.0"
     inkscape:pagecheckerboard="0"
     inkscape:deskcolor="#d1d1d1"
     inkscape:document-units="mm"
     inkscape:zoom="0.5946522"
     inkscape:cx="221.97849"
     inkscape:cy="380.89492"
     inkscape:window-width="1920"
     inkscape:window-height="1200"
     inkscape:window-x="1512"
     inkscape:window-y="0"
     inkscape:window-maximized="0"
     inkscape:current-layer="layer1" />
  <defs
     id="defs1" />
  <g
     inkscape:label="Layer 1"
     inkscape:groupmode="layer"
     id="layer1"
     transform="translate(-42.263847,-26.593944)">
    <path
       d="m 84.456012,39.127074 c 10.363706,0 18.847868,9.07876 19.544538,20.57124 H 64.911487 c 0.69672,-11.49248 9.180833,-20.57124 19.54454,-20.57124 z"
       fill="none"
       stroke="#005aa0"
       id="path1"
       style="stroke-width:2.07347" />
    <path
       style="font-weight:bold;font-size:12.8646px;font-family:Hermann;-inkscape-font-specification:'Hermann, Bold';fill:#005aa0;stroke-width:0.370476;stroke-linejoin:round"
       d="m 53.85562,82.108876 1.224471,3.929289 H 58.67854 L 52.581168,66.277893 C 52.506205,66.021604 52.281319,65.8508 52.056433,65.8508 h -2.973718 c -0.249898,0 -0.449772,0.170887 -0.524735,0.455561 l -6.097372,19.731795 h 3.598448 l 1.224472,-3.929288 z m -3.298578,-10.677375 2.099094,6.805054 h -4.173199 z m 20.591117,8.000923 1.874193,-2.163949 c 0.549748,-0.597897 0.849633,-1.423649 0.849633,-2.277852 v -3.872312 c 0,-0.882678 -0.299848,-1.679921 -0.849633,-2.306327 L 71.273109,66.818872 C 70.7483,66.220975 70.023646,65.879268 69.273965,65.879268 h -8.096508 v 20.158897 h 3.398537 v -5.808498 h 3.048687 l 2.848768,5.808498 h 3.873328 z m -6.572165,-9.680836 h 4.22318 c 0.149924,0 0.299849,0.0566 0.399823,0.199272 l 1.099523,1.224327 c 0.09998,0.142254 0.174936,0.284757 0.174936,0.455561 v 2.81883 c 0,0.170887 -0.07497,0.341691 -0.174936,0.45556 l -1.099523,1.252795 c -0.09998,0.114119 -0.249899,0.199521 -0.399823,0.199521 h -4.22318 z m 11.545047,-0.0283 V 65.85095 h 12.294698 v 3.872338 h -4.44808 V 86.038323 H 80.569122 V 69.723288 Z m 19.31668,-3.872338 h -3.398529 v 20.187373 h 3.398529 z m 13.219309,20.215848 h -4.99784 c -0.74968,0 -1.44938,-0.341691 -1.99915,-0.968105 l -1.999133,-2.249351 2.423953,-2.761895 1.64929,1.907701 c 0.1,0.113869 0.2499,0.199355 0.39983,0.199355 h 4.04825 c 0.14992,0 0.29985,-0.08549 0.39982,-0.199355 l 1.09952,-1.25282 c 0.1,-0.113869 0.17494,-0.284756 0.17494,-0.45556 v -0.654915 c 0,-0.313224 -0.17494,-0.569429 -0.42483,-0.626447 l -7.34684,-2.334778 c -0.84963,-0.256289 -1.57431,-0.854203 -2.099094,-1.62297 -0.524735,-0.797251 -0.799653,-1.76534 -0.799653,-2.733403 v -1.195861 c 0,-0.854202 0.274911,-1.679921 0.824647,-2.306327 l 1.74925,-1.993112 c 0.52481,-0.59798 1.24945,-0.939604 1.99913,-0.939604 h 4.99784 c 0.74969,0 1.47437,0.341691 1.99915,0.939604 l 1.99913,2.277852 -2.42395,2.733403 -1.64929,-1.879209 c -0.1,-0.142253 -0.2499,-0.199521 -0.39983,-0.199521 h -4.04825 c -0.14992,0 -0.29985,0.0566 -0.39982,0.199521 l -1.09953,1.224319 c -0.1,0.142254 -0.14992,0.284757 -0.14992,0.455561 v 0.683382 c 0,0.284756 0.14992,0.540962 0.39982,0.626364 l 7.34683,2.334803 c 0.84963,0.256289 1.57432,0.825718 2.0991,1.62297 0.52473,0.768701 0.82464,1.736847 0.82464,2.733403 v 1.19586 c 0,0.854178 -0.29985,1.679922 -0.84963,2.277835 l -1.74925,1.993104 c -0.52481,0.626447 -1.24947,0.968105 -1.99914,0.968105 z m 5.72252,-16.34351 V 65.85095 h 12.29469 v 3.872338 h -4.44808 v 16.315035 h -3.39853 V 69.723288 Z"
       id="text1"
       aria-label="ARTIST" />
    <path
       d="m 75.518674,89.889118 c 0,0 1.720794,9.225683 4.500235,12.410822 1.144523,1.31158 2.86883,2.17034 4.500237,2.17034 1.631409,0 3.355722,-0.85876 4.500237,-2.17034 2.779443,-3.185139 4.500237,-12.410822 4.500237,-12.410822 z m 2.263738,1.900593 h 13.47448 l -1.033001,2.37519 h -11.40847 z m 1.033009,3.45068 h 11.40847 l -0.87463,2.375198 h -9.659218 z m 0.874622,3.451829 h 9.659218 l -0.740458,2.37519 H 80.4305 Z"
       fill="#005aa0"
       stroke-width="0.386054"
       stroke-linejoin="round"
       id="path2" />
    <path
       d="m 84.393761,45.799238 c -4.683923,-0.728663 -9.267002,1.949221 -11.442127,6.685491"
       fill="none"
       stroke="#005aa0"
       stroke-width="2.48816"
       stroke-linejoin="round"
       id="path3" />
    <path
       d="m 107.61781,59.679527 h 19.0543"
       fill="none"
       stroke="#005aa0"
       stroke-width="1.2038"
       stroke-linejoin="round"
       id="path5"
       style="stroke-width:2.08176;stroke-dasharray:none" />
    <path
       d="m 106.95225,48.826937 5.78199,-2.701906"
       fill="none"
       stroke="#005aa0"
       stroke-width="2.6762"
       stroke-linejoin="round"
       id="path6" />
    <path
       d="M 63.178651,49.396042 57.679257,46.826159"
       fill="none"
       stroke="#005aa0"
       stroke-width="2.60997"
       stroke-linejoin="round"
       id="path7" />
    <path
       d="M 68.185952,40.94184 63.976895,36.193325"
       fill="none"
       stroke="#005aa0"
       stroke-width="2.60997"
       stroke-linejoin="round"
       id="path8" />
    <path
       d="M 75.67979,35.292942 73.401871,29.088707"
       fill="none"
       stroke="#005aa0"
       stroke-width="2.60997"
       stroke-linejoin="round"
       id="path9" />
    <path
       d="m 84.519146,33.309345 1.5e-5,-6.715398"
       fill="none"
       stroke="#005aa0"
       stroke-width="2.60997"
       stroke-linejoin="round"
       id="path10" />
    <path
       d="m 93.358629,35.292834 2.277933,-6.204235"
       fill="none"
       stroke="#005aa0"
       stroke-width="2.60997"
       stroke-linejoin="round"
       id="path11" />
    <path
       d="m 100.85239,40.941907 4.20907,-4.748515"
       fill="none"
       stroke="#005aa0"
       stroke-width="2.60997"
       stroke-linejoin="round"
       id="path12" />
    <path
       d="M 42.263847,59.679527 H 61.318144"
       fill="none"
       stroke="#005aa0"
       stroke-width="1.2038"
       stroke-linejoin="round"
       id="path13"
       style="stroke-width:2.08176;stroke-dasharray:none" />
  </g>
</svg>
