<svg xmlns="http://www.w3.org/2000/svg" width="135.26mm" height="28.279mm" viewBox="0 0 383.414 80.162">
  <g>
    <path d="M32.271,80.162h0A12.987,12.987,0,0,1,19.278,67.168c0-16.39,17.805-25.675,44.793-26.3a51.4,51.4,0,0,0-1.979-8.764C34.355,33,15.423,44.67,15.423,63.312a16.841,16.841,0,0,0,16.848,16.85" fill="#f9d900"/>
    <path d="M52.4,14.6a51.522,51.522,0,0,1,5.935,8.7C30.873,24.736,11.567,38.85,11.567,59.456a20.694,20.694,0,0,0,20.7,20.706A24.548,24.548,0,0,1,7.711,55.6c0-22.037,18.668-38.406,44.686-41" fill="#f9d900"/>
    <path d="M32.271,80.162A28.4,28.4,0,0,1,3.854,51.743c0-22.544,16.7-40.577,39.9-45.282A51.431,51.431,0,0,0,32.271,0,51.613,51.613,0,0,0,0,47.887,32.255,32.255,0,0,0,32.271,80.162" fill="#f9d900"/>
    <path d="M33.968,80.162H32.329c15.763,0,27.981-14.522,27.981-30.284a15.828,15.828,0,0,1,4.375-.271A30.435,30.435,0,0,1,33.968,80.162" fill="#f9d900"/>
    <path d="M351.815,65.746h7.058V47.257c0-6.049,4.036-10.083,9.414-10.083s8.068,2.621,8.068,8.74V65.746h7.059v-20.5c0-9.479-5.042-14.454-13.446-14.454a13.09,13.09,0,0,0-8.269,2.688,10.358,10.358,0,0,0-2.488,2.69h-.338V31.459h-7.058ZM317.527,48.6c0-6.991,4.3-11.428,10.421-11.428s10.42,4.437,10.42,11.428-4.3,11.43-10.42,11.43S317.527,55.6,317.527,48.6m-7.395,0a17.817,17.817,0,1,0,17.816-17.815A17.594,17.594,0,0,0,310.132,48.6M297.024,65.746h7.059V31.459h-7.059Zm-.674-43.5a4.1,4.1,0,0,0,4.168,4.168,4.16,4.16,0,0,0,4.236-4.168,4.218,4.218,0,0,0-4.236-4.236,4.163,4.163,0,0,0-4.168,4.236m-18.822,43.5h14.789V59.361h-7.73V18.686h-7.059Zm-33.616-20.5A10.054,10.054,0,0,1,254,37.174c6.119,0,9.345,4.034,10.084,8.067Zm-7.4,3.361A17.481,17.481,0,0,0,254,66.419a18.183,18.183,0,0,0,13.581-5.513,17.964,17.964,0,0,0,3.562-5.581h-7.394a10.527,10.527,0,0,1-2.22,2.355A11.651,11.651,0,0,1,254,60.032c-5.043,0-9.344-3.362-10.421-9.075h27.9V48.6a17.483,17.483,0,1,0-34.959,0M199.2,65.746h7.061V47.257c0-6.049,4.033-10.083,9.411-10.083s8.068,2.621,8.068,8.74V65.746H230.8v-20.5c0-9.479-5.042-14.454-13.446-14.454a13.1,13.1,0,0,0-8.269,2.688,10.375,10.375,0,0,0-2.488,2.69h-.335V18.686H199.2Zm-39.328,0h7.059V47.257c0-6.049,4.033-10.083,9.411-10.083s8.068,2.621,8.068,8.74V65.746h7.059v-20.5c0-9.479-5.042-14.454-13.446-14.454a13.1,13.1,0,0,0-8.269,2.688,10.441,10.441,0,0,0-2.487,2.69h-.336V31.459h-7.059ZM122.227,31.459l9.411,34.287H138.7l-4.035,12.775h7.4l14.118-47.062h-7.4l-8.068,27.564h-3.7l-7.4-27.564ZM80.545,51.628a18.943,18.943,0,0,0,3.226,7.733c2.69,3.9,7.733,7.73,16.608,7.73,11.763,0,18.486-6.723,18.486-14.454,0-10.22-11.024-12.236-19.293-14.656-4.977-1.345-8.943-3.228-8.943-6.858,0-3.7,3.026-6.723,9.412-6.723,4.774,0,7.329,1.68,8.741,3.361a8.779,8.779,0,0,1,1.679,3.362h8.069a18.74,18.74,0,0,0-3.092-6.859c-2.487-3.427-7.194-6.923-15.4-6.923-10.757,0-17.48,6.79-17.48,14.118,0,10.353,11.027,12.572,19.3,14.723,4.974,1.345,8.942,3.094,8.942,6.791,0,4.033-2.958,7.059-10.42,7.059-5.313,0-8.2-2.084-9.817-4.168a10.212,10.212,0,0,1-1.949-4.236Z" fill="#333"/>
  </g>
</svg>
