<?xml version="1.0" encoding="UTF-8" standalone="no"?>
<!-- Created with Inkscape (http://www.inkscape.org/) -->

<svg
   version="1.1"
   id="svg1"
   width="465.33334"
   height="30.666668"
   viewBox="0 0 465.33334 30.666668"
   xmlns="http://www.w3.org/2000/svg"
   xmlns:svg="http://www.w3.org/2000/svg">
  <defs
     id="defs1">
    <clipPath
       clipPathUnits="userSpaceOnUse"
       id="clipPath1">
      <path
         d="M 0,0 H 350 V 24 H 0 Z"
         id="path1" />
    </clipPath>
    <clipPath
       clipPathUnits="userSpaceOnUse"
       id="clipPath2">
      <path
         d="M 0,0 H 350 V 24 H 0 Z"
         id="path2" />
    </clipPath>
    <clipPath
       clipPathUnits="userSpaceOnUse"
       id="clipPath3">
      <path
         d="M 0,0 H 350 V 24 H 0 Z"
         id="path3" />
    </clipPath>
    <clipPath
       clipPathUnits="userSpaceOnUse"
       id="clipPath4">
      <path
         d="M 0,0 H 350 V 24 H 0 Z"
         id="path4" />
    </clipPath>
    <clipPath
       clipPathUnits="userSpaceOnUse"
       id="clipPath5">
      <path
         d="M 0,0 H 350 V 24 H 0 Z"
         id="path5" />
    </clipPath>
    <clipPath
       clipPathUnits="userSpaceOnUse"
       id="clipPath6">
      <path
         d="M 0,0 H 350 V 24 H 0 Z"
         id="path6" />
    </clipPath>
    <clipPath
       clipPathUnits="userSpaceOnUse"
       id="clipPath7">
      <path
         d="M 0,0 H 350 V 24 H 0 Z"
         id="path7" />
    </clipPath>
    <clipPath
       clipPathUnits="userSpaceOnUse"
       id="clipPath8">
      <path
         d="M 0,0 H 350 V 24 H 0 Z"
         id="path8" />
    </clipPath>
    <clipPath
       clipPathUnits="userSpaceOnUse"
       id="clipPath9">
      <path
         d="M 0,0 H 350 V 24 H 0 Z"
         id="path9" />
    </clipPath>
    <clipPath
       clipPathUnits="userSpaceOnUse"
       id="clipPath10">
      <path
         d="M 0,0 H 350 V 24 H 0 Z"
         id="path10" />
    </clipPath>
    <clipPath
       clipPathUnits="userSpaceOnUse"
       id="clipPath11">
      <path
         d="M 0,0 H 350 V 24 H 0 Z"
         id="path11" />
    </clipPath>
    <clipPath
       clipPathUnits="userSpaceOnUse"
       id="clipPath12">
      <path
         d="M 0,0 H 350 V 24 H 0 Z"
         id="path12" />
    </clipPath>
    <clipPath
       clipPathUnits="userSpaceOnUse"
       id="clipPath13">
      <path
         d="M 0,0 H 350 V 24 H 0 Z"
         id="path13" />
    </clipPath>
    <clipPath
       clipPathUnits="userSpaceOnUse"
       id="clipPath14">
      <path
         d="M 0,0 H 350 V 24 H 0 Z"
         id="path14" />
    </clipPath>
    <clipPath
       clipPathUnits="userSpaceOnUse"
       id="clipPath15">
      <path
         d="M 0,0 H 350 V 24 H 0 Z"
         id="path15" />
    </clipPath>
    <clipPath
       clipPathUnits="userSpaceOnUse"
       id="clipPath16">
      <path
         d="M 0,0 H 350 V 24 H 0 Z"
         id="path16" />
    </clipPath>
    <clipPath
       clipPathUnits="userSpaceOnUse"
       id="clipPath17">
      <path
         d="M 0,0 H 350 V 24 H 0 Z"
         id="path17" />
    </clipPath>
    <clipPath
       clipPathUnits="userSpaceOnUse"
       id="clipPath18">
      <path
         d="M 0,0 H 350 V 24 H 0 Z"
         id="path18" />
    </clipPath>
    <clipPath
       clipPathUnits="userSpaceOnUse"
       id="clipPath19">
      <path
         d="M 0,0 H 350 V 24 H 0 Z"
         id="path19" />
    </clipPath>
    <clipPath
       clipPathUnits="userSpaceOnUse"
       id="clipPath20">
      <path
         d="M 0,0 H 350 V 24 H 0 Z"
         id="path20" />
    </clipPath>
    <clipPath
       clipPathUnits="userSpaceOnUse"
       id="clipPath21">
      <path
         d="M 0,0 H 350 V 24 H 0 Z"
         id="path21" />
    </clipPath>
    <clipPath
       clipPathUnits="userSpaceOnUse"
       id="clipPath22">
      <path
         d="M 0,0 H 350 V 24 H 0 Z"
         id="path22" />
    </clipPath>
    <clipPath
       clipPathUnits="userSpaceOnUse"
       id="clipPath23">
      <path
         d="M 0,0 H 350 V 24 H 0 Z"
         id="path23" />
    </clipPath>
    <clipPath
       clipPathUnits="userSpaceOnUse"
       id="clipPath24">
      <path
         d="M 0,0 H 350 V 24 H 0 Z"
         id="path24" />
    </clipPath>
    <clipPath
       clipPathUnits="userSpaceOnUse"
       id="clipPath25">
      <path
         d="M 0,0 H 350 V 24 H 0 Z"
         id="path25" />
    </clipPath>
    <clipPath
       clipPathUnits="userSpaceOnUse"
       id="clipPath26">
      <path
         d="M 0,0 H 350 V 24 H 0 Z"
         id="path26" />
    </clipPath>
    <clipPath
       clipPathUnits="userSpaceOnUse"
       id="clipPath27">
      <path
         d="M 0,0 H 350 V 24 H 0 Z"
         id="path27" />
    </clipPath>
    <clipPath
       clipPathUnits="userSpaceOnUse"
       id="clipPath28">
      <path
         d="M 0,0 H 350 V 24 H 0 Z"
         id="path28" />
    </clipPath>
    <clipPath
       clipPathUnits="userSpaceOnUse"
       id="clipPath29">
      <path
         d="M 0,0 H 350 V 24 H 0 Z"
         id="path29" />
    </clipPath>
    <clipPath
       clipPathUnits="userSpaceOnUse"
       id="clipPath30">
      <path
         d="M 0,0 H 350 V 24 H 0 Z"
         id="path30" />
    </clipPath>
    <clipPath
       clipPathUnits="userSpaceOnUse"
       id="clipPath31">
      <path
         d="M 0,0 H 350 V 24 H 0 Z"
         id="path31" />
    </clipPath>
    <clipPath
       clipPathUnits="userSpaceOnUse"
       id="clipPath32">
      <path
         d="M 0,0 H 350 V 24 H 0 Z"
         id="path32" />
    </clipPath>
    <clipPath
       clipPathUnits="userSpaceOnUse"
       id="clipPath33">
      <path
         d="M 0,0 H 350 V 24 H 0 Z"
         id="path33" />
    </clipPath>
    <clipPath
       clipPathUnits="userSpaceOnUse"
       id="clipPath34">
      <path
         d="M 0,0 H 350 V 24 H 0 Z"
         id="path34" />
    </clipPath>
    <clipPath
       clipPathUnits="userSpaceOnUse"
       id="clipPath35">
      <path
         d="M 0,0 H 350 V 24 H 0 Z"
         id="path35" />
    </clipPath>
    <clipPath
       clipPathUnits="userSpaceOnUse"
       id="clipPath36">
      <path
         d="M 0,0 H 350 V 24 H 0 Z"
         id="path36" />
    </clipPath>
    <clipPath
       clipPathUnits="userSpaceOnUse"
       id="clipPath37">
      <path
         d="M 0,0 H 350 V 24 H 0 Z"
         id="path37" />
    </clipPath>
    <clipPath
       clipPathUnits="userSpaceOnUse"
       id="clipPath38">
      <path
         d="M 0,0 H 350 V 24 H 0 Z"
         id="path38" />
    </clipPath>
    <clipPath
       clipPathUnits="userSpaceOnUse"
       id="clipPath39">
      <path
         d="M 0,0 H 350 V 24 H 0 Z"
         id="path39" />
    </clipPath>
    <clipPath
       clipPathUnits="userSpaceOnUse"
       id="clipPath40">
      <path
         d="M 0,0 H 350 V 24 H 0 Z"
         id="path40" />
    </clipPath>
    <clipPath
       clipPathUnits="userSpaceOnUse"
       id="clipPath41">
      <path
         d="M 0,0 H 350 V 24 H 0 Z"
         id="path41" />
    </clipPath>
    <clipPath
       clipPathUnits="userSpaceOnUse"
       id="clipPath42">
      <path
         d="M 0,0 H 350 V 24 H 0 Z"
         id="path42" />
    </clipPath>
    <clipPath
       clipPathUnits="userSpaceOnUse"
       id="clipPath43">
      <path
         d="M 0,0 H 350 V 24 H 0 Z"
         id="path43" />
    </clipPath>
    <clipPath
       clipPathUnits="userSpaceOnUse"
       id="clipPath44">
      <path
         d="M 0,0 H 350 V 24 H 0 Z"
         id="path44" />
    </clipPath>
    <clipPath
       clipPathUnits="userSpaceOnUse"
       id="clipPath45">
      <path
         d="M 0,0 H 350 V 24 H 0 Z"
         id="path45" />
    </clipPath>
    <clipPath
       clipPathUnits="userSpaceOnUse"
       id="clipPath46">
      <path
         d="M 0,0 H 350 V 24 H 0 Z"
         id="path46" />
    </clipPath>
    <clipPath
       clipPathUnits="userSpaceOnUse"
       id="clipPath47">
      <path
         d="M 0,0 H 350 V 24 H 0 Z"
         id="path47" />
    </clipPath>
    <clipPath
       clipPathUnits="userSpaceOnUse"
       id="clipPath48">
      <path
         d="M 0,0 H 350 V 24 H 0 Z"
         id="path48" />
    </clipPath>
    <clipPath
       clipPathUnits="userSpaceOnUse"
       id="clipPath49">
      <path
         d="M 0,0 H 350 V 24 H 0 Z"
         id="path49" />
    </clipPath>
    <clipPath
       clipPathUnits="userSpaceOnUse"
       id="clipPath99">
      <path
         d="M 0,0 H 348.594 V 22.109 H 0 Z"
         transform="scale(1.3333333)"
         id="path99" />
    </clipPath>
  </defs>
  <g
     id="g1">
    <g
       id="g98"
       clip-path="url(#clipPath99)">
      <path
         d="M 11.473,9.047 V 0.359 h 4.117 v 21.465 h -4.117 v -8.66 H 4.117 v 8.66 H 0 V 0.359 h 4.117 v 8.688 h 7.356"
         style="fill:#002864;fill-opacity:1;fill-rule:nonzero;stroke:none"
         transform="scale(1.3333333)"
         clip-path="url(#clipPath1)"
         id="path50" />
      <path
         d="M 33.734,0.359 V 4.477 H 24.32 v 4.57 h 8.172 v 4.117 H 24.32 v 4.543 h 9.414 v 4.117 H 22.23 c -0.179,0 -0.363,-0.062 -0.484,-0.215 L 20.414,20.281 C 20.266,20.16 20.203,19.977 20.203,19.793 V 2.387 c 0,-0.18 0.063,-0.364 0.211,-0.485 L 21.746,0.57 C 21.867,0.449 22.051,0.359 22.23,0.359 h 11.504"
         style="fill:#002864;fill-opacity:1;fill-rule:nonzero;stroke:none"
         transform="scale(1.3333333)"
         clip-path="url(#clipPath2)"
         id="path51" />
      <path
         d="m 40.102,21.824 c -0.18,0 -0.364,-0.062 -0.485,-0.215 L 38.285,20.281 C 38.133,20.16 38.074,19.977 38.074,19.793 V 0.359 h 4.117 v 17.348 h 8.961 v 4.117 h -11.05"
         style="fill:#002864;fill-opacity:1;fill-rule:nonzero;stroke:none"
         transform="scale(1.3333333)"
         clip-path="url(#clipPath3)"
         id="path52" />
      <path
         d="M 73.258,0.359 V 21.824 H 69.141 V 9.957 l -3.36,7.023 c -0.121,0.239 -0.363,0.395 -0.605,0.395 h -2.422 c -0.274,0 -0.516,-0.156 -0.637,-0.395 L 58.758,9.957 V 21.824 H 54.641 V 0.359 h 4.117 l 5.207,10.899 5.176,-10.899 h 4.117"
         style="fill:#002864;fill-opacity:1;fill-rule:nonzero;stroke:none"
         transform="scale(1.3333333)"
         clip-path="url(#clipPath4)"
         id="path53" />
      <path
         d="M 89.074,9.047 V 0.359 h 4.117 v 21.465 h -4.117 v -8.66 h -7.355 v 8.66 H 77.602 V 0.359 h 4.117 v 8.688 h 7.355"
         style="fill:#002864;fill-opacity:1;fill-rule:nonzero;stroke:none"
         transform="scale(1.3333333)"
         clip-path="url(#clipPath5)"
         id="path54" />
      <path
         d="M 108.766,15.707 V 6.504 c 0,-0.18 -0.094,-0.363 -0.215,-0.484 L 107.25,4.688 c -0.152,-0.122 -0.332,-0.211 -0.516,-0.211 h -3.691 c -0.184,0 -0.332,0.089 -0.484,0.211 l -1.305,1.332 c -0.149,0.121 -0.211,0.304 -0.211,0.484 v 9.203 c 0,0.184 0.062,0.332 0.211,0.484 l 1.305,1.301 c 0.152,0.153 0.3,0.215 0.484,0.215 h 3.691 c 0.184,0 0.364,-0.062 0.516,-0.215 l 1.301,-1.301 c 0.121,-0.152 0.215,-0.3 0.215,-0.484 z m 0.968,-14.32 2.149,2.121 c 0.637,0.637 0.996,1.512 0.996,2.422 v 10.32 c 0,0.91 -0.359,1.789 -0.996,2.426 l -2.149,2.148 c -0.636,0.637 -1.515,1 -2.425,1 h -4.813 c -0.906,0 -1.816,-0.336 -2.449,-1 l -2.121,-2.148 c -0.637,-0.637 -1,-1.516 -1,-2.426 V 5.93 c 0,-0.91 0.363,-1.785 1,-2.422 l 2.121,-2.121 c 0.664,-0.664 1.543,-1.028 2.449,-1.028 h 4.813 c 0.91,0 1.757,0.391 2.425,1.028"
         style="fill:#002864;fill-opacity:1;fill-rule:nonzero;stroke:none"
         transform="scale(1.3333333)"
         clip-path="url(#clipPath6)"
         id="path55" />
      <path
         d="m 118.555,21.824 c -0.184,0 -0.367,-0.062 -0.489,-0.215 l -1.332,-1.328 c -0.152,-0.121 -0.211,-0.304 -0.211,-0.488 V 0.359 h 4.118 v 17.348 h 8.961 v 4.117 h -11.047"
         style="fill:#002864;fill-opacity:1;fill-rule:nonzero;stroke:none"
         transform="scale(1.3333333)"
         clip-path="url(#clipPath7)"
         id="path56" />
      <path
         d="M 129.305,4.477 V 0.359 h 15.5 v 4.118 h -5.692 v 17.347 h -4.117 V 4.477 h -5.691"
         style="fill:#002864;fill-opacity:1;fill-rule:nonzero;stroke:none"
         transform="scale(1.3333333)"
         clip-path="url(#clipPath8)"
         id="path57" />
      <path
         d="m 160.742,0.57 1.332,1.332 c 0.117,0.121 0.211,0.305 0.211,0.485 v 1.058 l -9.023,14.262 h 8.902 v 4.117 h -12.293 c -0.18,0 -0.363,-0.062 -0.484,-0.215 l -1.328,-1.328 c -0.125,-0.121 -0.215,-0.304 -0.215,-0.488 v -1.238 l 8.902,-14.078 h -9.023 V 0.359 h 12.535 c 0.18,0 0.363,0.09 0.484,0.211"
         style="fill:#002864;fill-opacity:1;fill-rule:nonzero;stroke:none"
         transform="scale(1.3333333)"
         clip-path="url(#clipPath9)"
         id="path58" />
      <path
         d="m 172.434,13.52 h 5.046 l -2.539,-7.231 z m -1.457,4.117 -1.481,4.172 h -4.355 L 172.52,0.844 c 0.089,-0.301 0.335,-0.481 0.636,-0.481 h 3.602 c 0.269,0 0.543,0.18 0.633,0.453 l 7.379,20.993 h -4.352 l -1.484,-4.172 h -7.957"
         style="fill:#14c8ff;fill-opacity:1;fill-rule:nonzero;stroke:none"
         transform="scale(1.3333333)"
         clip-path="url(#clipPath10)"
         id="path59" />
      <path
         d="m 187.785,0.363 h 4.113 v 21.445 h -4.113 z"
         style="fill:#14c8ff;fill-opacity:1;fill-rule:nonzero;stroke:none"
         transform="scale(1.3333333)"
         clip-path="url(#clipPath11)"
         id="path60" />
      <path
         d="m 198.906,0 h 0.734 v 22.109 h -0.734 z"
         style="fill:#002864;fill-opacity:1;fill-rule:nonzero;stroke:none"
         transform="scale(1.3333333)"
         clip-path="url(#clipPath12)"
         id="path61" />
      <path
         d="m 209.508,2 -1.223,3.898 h 2.457 z m 0.648,-1.613 2.965,8.695 h -1.391 l -0.636,-2.027 h -3.16 l -0.649,2.027 h -1.379 l 2.953,-8.695 h 1.297"
         style="fill:#002864;fill-opacity:1;fill-rule:nonzero;stroke:none"
         transform="scale(1.3333333)"
         clip-path="url(#clipPath13)"
         id="path62" />
      <path
         d="m 216.332,4.441 c 0.938,0 1.223,-0.023 1.574,-0.156 0.543,-0.195 0.844,-0.66 0.844,-1.312 0,-0.559 -0.234,-0.973 -0.676,-1.184 -0.363,-0.18 -0.648,-0.219 -1.808,-0.219 h -0.532 v 2.871 z m -0.078,-4.027 c 1.441,0 1.988,0.078 2.574,0.348 0.82,0.39 1.313,1.222 1.313,2.226 0,1.141 -0.559,1.95 -1.653,2.391 l 2.133,3.703 h -1.586 l -1.961,-3.484 h -1.34 v 3.484 h -1.339 V 0.414 h 1.859"
         style="fill:#002864;fill-opacity:1;fill-rule:nonzero;stroke:none"
         transform="scale(1.3333333)"
         clip-path="url(#clipPath14)"
         id="path63" />
      <path
         d="M 226.879,0.414 V 1.57 h -2.289 v 7.512 h -1.34 V 1.57 h -2.262 V 0.414 h 5.891"
         style="fill:#002864;fill-opacity:1;fill-rule:nonzero;stroke:none"
         transform="scale(1.3333333)"
         clip-path="url(#clipPath15)"
         id="path64" />
      <path
         d="m 228.137,0.414 h 1.352 v 8.668 h -1.352 z"
         style="fill:#002864;fill-opacity:1;fill-rule:nonzero;stroke:none"
         transform="scale(1.3333333)"
         clip-path="url(#clipPath16)"
         id="path65" />
      <path
         d="m 236.473,4.012 v 1.16 h -3.489 v 3.91 h -1.336 V 0.414 h 5.133 V 1.57 h -3.797 v 2.442 h 3.489"
         style="fill:#002864;fill-opacity:1;fill-rule:nonzero;stroke:none"
         transform="scale(1.3333333)"
         clip-path="url(#clipPath17)"
         id="path66" />
      <path
         d="m 238.188,0.414 h 1.352 v 8.668 h -1.352 z"
         style="fill:#002864;fill-opacity:1;fill-rule:nonzero;stroke:none"
         transform="scale(1.3333333)"
         clip-path="url(#clipPath18)"
         id="path67" />
      <path
         d="m 246.66,3.039 c -0.207,-1.078 -0.805,-1.613 -1.777,-1.613 -1.418,0 -2.305,1.289 -2.305,3.328 0,2.043 0.887,3.316 2.317,3.316 1.105,0 1.726,-0.703 1.859,-2.082 h 1.223 c -0.129,2.121 -1.184,3.25 -3.043,3.25 -2.289,0 -3.758,-1.742 -3.758,-4.472 0,-2.727 1.457,-4.508 3.707,-4.508 1.738,0 2.805,1 2.965,2.781 h -1.188"
         style="fill:#002864;fill-opacity:1;fill-rule:nonzero;stroke:none"
         transform="scale(1.3333333)"
         clip-path="url(#clipPath19)"
         id="path68" />
      <path
         d="m 249.484,0.414 h 1.352 v 8.668 h -1.352 z"
         style="fill:#002864;fill-opacity:1;fill-rule:nonzero;stroke:none"
         transform="scale(1.3333333)"
         clip-path="url(#clipPath20)"
         id="path69" />
      <path
         d="m 255.711,2 -1.223,3.898 h 2.457 z m 0.648,-1.613 2.965,8.695 h -1.39 l -0.637,-2.027 h -3.16 l -0.649,2.027 h -1.379 l 2.95,-8.695 h 1.3"
         style="fill:#002864;fill-opacity:1;fill-rule:nonzero;stroke:none"
         transform="scale(1.3333333)"
         clip-path="url(#clipPath21)"
         id="path70" />
      <path
         d="m 261.977,0.414 v 7.512 h 3.73 v 1.156 h -5.109 V 0.414 h 1.379"
         style="fill:#002864;fill-opacity:1;fill-rule:nonzero;stroke:none"
         transform="scale(1.3333333)"
         clip-path="url(#clipPath22)"
         id="path71" />
      <path
         d="m 270.281,0.414 h 1.355 v 8.668 h -1.355 z"
         style="fill:#002864;fill-opacity:1;fill-rule:nonzero;stroke:none"
         transform="scale(1.3333333)"
         clip-path="url(#clipPath23)"
         id="path72" />
      <path
         d="m 275.234,0.414 3.813,6.629 V 0.414 h 1.273 v 8.668 h -1.39 l -3.864,-6.617 v 6.617 h -1.273 V 0.414 h 1.441"
         style="fill:#002864;fill-opacity:1;fill-rule:nonzero;stroke:none"
         transform="scale(1.3333333)"
         clip-path="url(#clipPath24)"
         id="path73" />
      <path
         d="M 287.496,0.414 V 1.57 h -2.289 v 7.512 h -1.34 V 1.57 h -2.262 V 0.414 h 5.891"
         style="fill:#002864;fill-opacity:1;fill-rule:nonzero;stroke:none"
         transform="scale(1.3333333)"
         clip-path="url(#clipPath25)"
         id="path74" />
      <path
         d="m 293.594,4.012 v 1.16 h -3.489 v 2.754 h 3.903 V 9.082 H 288.77 V 0.414 h 5.132 V 1.57 h -3.797 v 2.442 h 3.489"
         style="fill:#002864;fill-opacity:1;fill-rule:nonzero;stroke:none"
         transform="scale(1.3333333)"
         clip-path="url(#clipPath26)"
         id="path75" />
      <path
         d="m 296.906,0.414 v 7.512 h 3.731 v 1.156 h -5.11 V 0.414 h 1.379"
         style="fill:#002864;fill-opacity:1;fill-rule:nonzero;stroke:none"
         transform="scale(1.3333333)"
         clip-path="url(#clipPath27)"
         id="path76" />
      <path
         d="m 303.355,0.414 v 7.512 h 3.731 v 1.156 h -5.109 V 0.414 h 1.378"
         style="fill:#002864;fill-opacity:1;fill-rule:nonzero;stroke:none"
         transform="scale(1.3333333)"
         clip-path="url(#clipPath28)"
         id="path77" />
      <path
         d="m 308.41,0.414 h 1.355 v 8.668 h -1.355 z"
         style="fill:#002864;fill-opacity:1;fill-rule:nonzero;stroke:none"
         transform="scale(1.3333333)"
         clip-path="url(#clipPath29)"
         id="path78" />
      <path
         d="m 318.316,4.688 v 3.589 c -0.921,0.649 -1.91,0.961 -3.039,0.961 -2.406,0 -3.875,-1.703 -3.875,-4.496 0,-2.719 1.469,-4.484 3.743,-4.484 1.066,0 1.937,0.387 2.484,1.09 0.34,0.457 0.492,0.922 0.57,1.679 h -1.195 c -0.195,-1.082 -0.793,-1.601 -1.832,-1.601 -1.469,0 -2.367,1.25 -2.367,3.328 0,1.066 0.261,1.965 0.754,2.574 0.39,0.496 0.976,0.742 1.718,0.742 0.661,0 1.325,-0.195 1.899,-0.558 v -1.77 h -1.758 V 4.688 h 2.898"
         style="fill:#002864;fill-opacity:1;fill-rule:nonzero;stroke:none"
         transform="scale(1.3333333)"
         clip-path="url(#clipPath30)"
         id="path79" />
      <path
         d="m 324.961,4.012 v 1.16 h -3.484 v 2.754 h 3.902 v 1.156 h -5.242 V 0.414 h 5.136 V 1.57 h -3.796 v 2.442 h 3.484"
         style="fill:#002864;fill-opacity:1;fill-rule:nonzero;stroke:none"
         transform="scale(1.3333333)"
         clip-path="url(#clipPath31)"
         id="path80" />
      <path
         d="m 328.34,0.414 3.808,6.629 V 0.414 h 1.278 v 8.668 h -1.395 l -3.859,-6.617 v 6.617 h -1.274 V 0.414 h 1.442"
         style="fill:#002864;fill-opacity:1;fill-rule:nonzero;stroke:none"
         transform="scale(1.3333333)"
         clip-path="url(#clipPath32)"
         id="path81" />
      <path
         d="m 340.52,3.039 c -0.208,-1.078 -0.805,-1.613 -1.782,-1.613 -1.414,0 -2.3,1.289 -2.3,3.328 0,2.043 0.886,3.316 2.316,3.316 1.105,0 1.726,-0.703 1.859,-2.082 h 1.223 c -0.133,2.121 -1.184,3.25 -3.043,3.25 -2.289,0 -3.758,-1.742 -3.758,-4.472 0,-2.727 1.457,-4.508 3.703,-4.508 1.742,0 2.813,1 2.965,2.781 h -1.183"
         style="fill:#002864;fill-opacity:1;fill-rule:nonzero;stroke:none"
         transform="scale(1.3333333)"
         clip-path="url(#clipPath33)"
         id="path82" />
      <path
         d="m 348.18,4.012 v 1.16 h -3.485 v 2.754 h 3.899 v 1.156 h -5.239 V 0.414 h 5.133 V 1.57 h -3.793 v 2.442 h 3.485"
         style="fill:#002864;fill-opacity:1;fill-rule:nonzero;stroke:none"
         transform="scale(1.3333333)"
         clip-path="url(#clipPath34)"
         id="path83" />
      <path
         d="m 211.758,15.84 c -0.207,-1.078 -0.809,-1.613 -1.781,-1.613 -1.418,0 -2.301,1.289 -2.301,3.328 0,2.043 0.883,3.316 2.312,3.316 1.106,0 1.731,-0.703 1.86,-2.082 h 1.222 c -0.129,2.121 -1.183,3.25 -3.043,3.25 -2.289,0 -3.757,-1.742 -3.757,-4.473 0,-2.726 1.457,-4.507 3.707,-4.507 1.742,0 2.808,1 2.964,2.781 h -1.183"
         style="fill:#002864;fill-opacity:1;fill-rule:nonzero;stroke:none"
         transform="scale(1.3333333)"
         clip-path="url(#clipPath35)"
         id="path84" />
      <path
         d="m 215.461,17.504 c 0,2.094 0.898,3.379 2.34,3.379 0.676,0 1.273,-0.297 1.652,-0.832 0.442,-0.649 0.676,-1.52 0.676,-2.508 0,-2.016 -0.922,-3.328 -2.34,-3.328 -1.402,0 -2.328,1.301 -2.328,3.289 z m 6.07,0.039 c 0,2.676 -1.508,4.496 -3.73,4.496 -2.274,0 -3.742,-1.793 -3.742,-4.562 0,-2.614 1.519,-4.418 3.73,-4.418 2.234,0 3.742,1.804 3.742,4.484"
         style="fill:#002864;fill-opacity:1;fill-rule:nonzero;stroke:none"
         transform="scale(1.3333333)"
         clip-path="url(#clipPath36)"
         id="path85" />
      <path
         d="m 224.043,17.504 c 0,2.094 0.895,3.379 2.34,3.379 0.676,0 1.273,-0.297 1.648,-0.832 0.446,-0.649 0.68,-1.52 0.68,-2.508 0,-2.016 -0.926,-3.328 -2.344,-3.328 -1.402,0 -2.324,1.301 -2.324,3.289 z m 6.07,0.039 c 0,2.676 -1.508,4.496 -3.73,4.496 -2.278,0 -3.746,-1.793 -3.746,-4.562 0,-2.614 1.523,-4.418 3.73,-4.418 2.238,0 3.746,1.804 3.746,4.484"
         style="fill:#002864;fill-opacity:1;fill-rule:nonzero;stroke:none"
         transform="scale(1.3333333)"
         clip-path="url(#clipPath37)"
         id="path86" />
      <path
         d="m 233.648,17.359 c 0.922,0 1.2,-0.023 1.563,-0.129 0.57,-0.168 0.883,-0.652 0.883,-1.339 0,-0.649 -0.246,-1.106 -0.715,-1.313 -0.363,-0.156 -0.754,-0.207 -1.742,-0.207 h -0.559 v 2.988 z m -0.168,-4.144 c 1.301,0 1.872,0.062 2.43,0.246 0.977,0.324 1.574,1.246 1.574,2.441 0,1.16 -0.574,2.055 -1.535,2.379 -0.519,0.184 -1.062,0.235 -2.301,0.235 h -0.57 v 3.367 h -1.34 v -8.668 h 1.742"
         style="fill:#002864;fill-opacity:1;fill-rule:nonzero;stroke:none"
         transform="scale(1.3333333)"
         clip-path="url(#clipPath38)"
         id="path87" />
      <path
         d="m 243.672,16.812 v 1.161 h -3.484 v 2.754 h 3.902 v 1.156 h -5.242 v -8.668 h 5.136 v 1.156 h -3.796 v 2.441 h 3.484"
         style="fill:#002864;fill-opacity:1;fill-rule:nonzero;stroke:none"
         transform="scale(1.3333333)"
         clip-path="url(#clipPath39)"
         id="path88" />
      <path
         d="m 247.547,17.242 c 0.933,0 1.223,-0.023 1.57,-0.156 0.547,-0.195 0.848,-0.66 0.848,-1.313 0,-0.558 -0.235,-0.972 -0.676,-1.183 -0.363,-0.18 -0.648,-0.219 -1.809,-0.219 h -0.531 v 2.871 z m -0.078,-4.027 c 1.441,0 1.988,0.074 2.574,0.347 0.816,0.391 1.312,1.223 1.312,2.223 0,1.145 -0.558,1.953 -1.652,2.395 l 2.133,3.703 h -1.586 l -1.965,-3.485 h -1.336 v 3.485 h -1.34 v -8.668 h 1.86"
         style="fill:#002864;fill-opacity:1;fill-rule:nonzero;stroke:none"
         transform="scale(1.3333333)"
         clip-path="url(#clipPath40)"
         id="path89" />
      <path
         d="m 255.828,14.801 -1.223,3.898 h 2.457 z m 0.649,-1.613 2.964,8.695 h -1.39 l -0.637,-2.028 h -3.16 l -0.649,2.028 h -1.378 l 2.953,-8.695 h 1.297"
         style="fill:#002864;fill-opacity:1;fill-rule:nonzero;stroke:none"
         transform="scale(1.3333333)"
         clip-path="url(#clipPath41)"
         id="path90" />
      <path
         d="m 264.953,13.215 v 1.156 h -2.289 v 7.512 h -1.34 v -7.512 h -2.262 v -1.156 h 5.891"
         style="fill:#002864;fill-opacity:1;fill-rule:nonzero;stroke:none"
         transform="scale(1.3333333)"
         clip-path="url(#clipPath42)"
         id="path91" />
      <path
         d="m 266.215,13.215 h 1.348 v 8.668 h -1.348 z"
         style="fill:#002864;fill-opacity:1;fill-rule:nonzero;stroke:none"
         transform="scale(1.3333333)"
         clip-path="url(#clipPath43)"
         id="path92" />
      <path
         d="m 270.605,17.504 c 0,2.094 0.899,3.379 2.34,3.379 0.68,0 1.278,-0.297 1.653,-0.832 0.441,-0.649 0.675,-1.52 0.675,-2.508 0,-2.016 -0.921,-3.328 -2.339,-3.328 -1.403,0 -2.329,1.301 -2.329,3.289 z m 6.075,0.039 c 0,2.676 -1.508,4.496 -3.735,4.496 -2.273,0 -3.742,-1.793 -3.742,-4.562 0,-2.614 1.52,-4.418 3.731,-4.418 2.238,0 3.746,1.804 3.746,4.484"
         style="fill:#002864;fill-opacity:1;fill-rule:nonzero;stroke:none"
         transform="scale(1.3333333)"
         clip-path="url(#clipPath44)"
         id="path93" />
      <path
         d="m 279.746,13.215 3.809,6.629 v -6.629 h 1.273 v 8.668 h -1.39 l -3.86,-6.617 v 6.617 h -1.273 v -8.668 h 1.441"
         style="fill:#002864;fill-opacity:1;fill-rule:nonzero;stroke:none"
         transform="scale(1.3333333)"
         clip-path="url(#clipPath45)"
         id="path94" />
      <path
         d="m 291.473,13.215 v 5.027 c 0,1.082 0.039,1.395 0.234,1.77 0.273,0.547 0.883,0.859 1.688,0.859 0.937,0 1.574,-0.402 1.808,-1.144 0.094,-0.301 0.117,-0.598 0.117,-1.485 v -5.027 h 1.34 v 5.055 c 0,1.289 -0.055,1.664 -0.273,2.16 -0.469,1.011 -1.563,1.609 -2.992,1.609 -1.415,0 -2.52,-0.598 -2.989,-1.609 -0.222,-0.508 -0.273,-0.871 -0.273,-2.16 v -5.055 h 1.34"
         style="fill:#002864;fill-opacity:1;fill-rule:nonzero;stroke:none"
         transform="scale(1.3333333)"
         clip-path="url(#clipPath46)"
         id="path95" />
      <path
         d="m 300.145,13.215 3.808,6.629 v -6.629 h 1.274 v 8.668 h -1.391 l -3.863,-6.617 v 6.617 h -1.274 v -8.668 h 1.446"
         style="fill:#002864;fill-opacity:1;fill-rule:nonzero;stroke:none"
         transform="scale(1.3333333)"
         clip-path="url(#clipPath47)"
         id="path96" />
      <path
         d="m 307.371,13.215 h 1.352 v 8.668 h -1.352 z"
         style="fill:#002864;fill-opacity:1;fill-rule:nonzero;stroke:none"
         transform="scale(1.3333333)"
         clip-path="url(#clipPath48)"
         id="path97" />
      <path
         d="m 315.898,13.215 v 1.156 h -2.289 v 7.512 h -1.339 v -7.512 h -2.262 v -1.156 h 5.89"
         style="fill:#002864;fill-opacity:1;fill-rule:nonzero;stroke:none"
         transform="scale(1.3333333)"
         clip-path="url(#clipPath49)"
         id="path98" />
    </g>
  </g>
</svg>
